<svg width="555" height="555" viewBox="0 0 555 555" fill="none" xmlns="http://www.w3.org/2000/svg">
<rect x="8.5" y="8.5" width="538" height="538" rx="16.5" fill="#0F8AC9" stroke="#0F8AC9" stroke-width="17"/>
<rect x="246" y="437" width="61" height="61" fill="#006498"/>
<rect x="147" y="437" width="61" height="61" fill="#006498"/>
<rect x="346" y="437" width="62" height="61" fill="#006498"/>
<rect x="246" y="338" width="61" height="61" fill="#E16464"/>
<rect x="147" y="338" width="61" height="61" fill="#006498"/>
<rect x="346" y="338" width="62" height="61" fill="#006498"/>
<rect x="246" y="237" width="61" height="61" fill="#006498"/>
<rect x="147" y="237" width="61" height="61" fill="#006498"/>
<rect x="346" y="237" width="62" height="61" fill="#006498"/>
<path d="M157.223 104.102C156.768 99.5189 154.818 95.9583 151.371 93.4205C147.924 90.8826 143.246 89.6136 137.337 89.6136C133.321 89.6136 129.931 90.1818 127.166 91.3182C124.401 92.4167 122.28 93.9508 120.803 95.9205C119.363 97.8902 118.643 100.125 118.643 102.625C118.568 104.708 119.003 106.527 119.95 108.08C120.935 109.633 122.28 110.977 123.984 112.114C125.689 113.212 127.659 114.178 129.893 115.011C132.128 115.807 134.515 116.489 137.053 117.057L147.507 119.557C152.583 120.693 157.242 122.208 161.484 124.102C165.727 125.996 169.401 128.326 172.507 131.091C175.613 133.856 178.018 137.114 179.723 140.864C181.465 144.614 182.356 148.913 182.393 153.761C182.356 160.883 180.537 167.057 176.939 172.284C173.378 177.473 168.227 181.508 161.484 184.386C154.78 187.227 146.693 188.648 137.223 188.648C127.829 188.648 119.647 187.208 112.678 184.33C105.746 181.451 100.329 177.189 96.4276 171.545C92.5639 165.864 90.5374 158.837 90.348 150.466H114.155C114.42 154.367 115.537 157.625 117.507 160.239C119.515 162.814 122.185 164.765 125.518 166.091C128.89 167.379 132.696 168.023 136.939 168.023C141.106 168.023 144.723 167.417 147.791 166.205C150.897 164.992 153.303 163.307 155.007 161.148C156.712 158.989 157.564 156.508 157.564 153.705C157.564 151.091 156.787 148.894 155.234 147.114C153.719 145.333 151.484 143.818 148.53 142.568C145.613 141.318 142.034 140.182 137.791 139.159L125.121 135.977C115.31 133.591 107.564 129.86 101.882 124.784C96.2003 119.708 93.3783 112.871 93.4162 104.273C93.3783 97.2273 95.2533 91.072 99.0412 85.8068C102.867 80.5417 108.113 76.4318 114.78 73.4773C121.446 70.5227 129.022 69.0455 137.507 69.0455C146.143 69.0455 153.681 70.5227 160.121 73.4773C166.598 76.4318 171.636 80.5417 175.234 85.8068C178.833 91.072 180.689 97.1705 180.803 104.102H157.223ZM225.135 187L191.839 70.6364H218.714L237.976 151.489H238.942L260.192 70.6364H283.203L304.396 151.659H305.419L324.68 70.6364H351.555L318.26 187H294.283L272.124 110.92H271.214L249.112 187H225.135ZM405.973 187H364.723V70.6364H406.314C418.018 70.6364 428.094 72.9659 436.541 77.625C444.988 82.2462 451.484 88.8939 456.03 97.5682C460.613 106.242 462.905 116.621 462.905 128.705C462.905 140.826 460.613 151.242 456.03 159.955C451.484 168.667 444.95 175.352 436.428 180.011C427.943 184.67 417.791 187 405.973 187ZM389.325 165.92H404.95C412.223 165.92 418.34 164.633 423.303 162.057C428.303 159.443 432.053 155.409 434.553 149.955C437.09 144.462 438.359 137.379 438.359 128.705C438.359 120.106 437.09 113.08 434.553 107.625C432.053 102.17 428.321 98.1553 423.359 95.5795C418.397 93.0038 412.28 91.7159 405.007 91.7159H389.325V165.92Z" fill="#006498"/>
</svg>
