<svg width="555" height="555" viewBox="0 0 555 555" fill="none" xmlns="http://www.w3.org/2000/svg">
<rect x="8.5" y="8.5" width="538" height="538" rx="16.5" fill="#0F8AC9" stroke="#0F8AC9" stroke-width="17"/>
<rect x="246" y="437" width="61" height="61" fill="#006498"/>
<rect x="147" y="437" width="61" height="61" fill="#006498"/>
<rect x="346" y="437" width="62" height="61" fill="#006498"/>
<rect x="246" y="338" width="61" height="61" fill="#E16464"/>
<rect x="147" y="338" width="61" height="61" fill="#006498"/>
<rect x="346" y="338" width="62" height="61" fill="#006498"/>
<rect x="246" y="237" width="61" height="61" fill="#006498"/>
<rect x="147" y="237" width="61" height="61" fill="#006498"/>
<rect x="346" y="237" width="62" height="61" fill="#006498"/>
<path d="M109.176 187H67.9261V70.6364H109.517C121.222 70.6364 131.297 72.9659 139.744 77.625C148.191 82.2462 154.688 88.8939 159.233 97.5682C163.816 106.242 166.108 116.621 166.108 128.705C166.108 140.826 163.816 151.242 159.233 159.955C154.688 168.667 148.153 175.352 139.631 180.011C131.146 184.67 120.994 187 109.176 187ZM92.5284 165.92H108.153C115.426 165.92 121.544 164.633 126.506 162.057C131.506 159.443 135.256 155.409 137.756 149.955C140.294 144.462 141.562 137.379 141.562 128.705C141.562 120.106 140.294 113.08 137.756 107.625C135.256 102.17 131.525 98.1553 126.562 95.5795C121.6 93.0038 115.483 91.7159 108.21 91.7159H92.5284V165.92ZM223.651 188.705C214.673 188.705 206.946 186.886 200.469 183.25C194.029 179.576 189.067 174.386 185.582 167.682C182.098 160.939 180.355 152.966 180.355 143.761C180.355 134.784 182.098 126.905 185.582 120.125C189.067 113.345 193.973 108.061 200.298 104.273C206.662 100.485 214.124 98.5909 222.685 98.5909C228.442 98.5909 233.802 99.5189 238.764 101.375C243.764 103.193 248.12 105.939 251.832 109.614C255.582 113.288 258.499 117.909 260.582 123.477C262.666 129.008 263.707 135.485 263.707 142.909V149.557H190.014V134.557H240.923C240.923 131.072 240.166 127.985 238.651 125.295C237.135 122.606 235.033 120.504 232.344 118.989C229.692 117.436 226.605 116.659 223.082 116.659C219.408 116.659 216.151 117.511 213.31 119.216C210.507 120.883 208.31 123.136 206.719 125.977C205.128 128.78 204.313 131.905 204.276 135.352V149.614C204.276 153.932 205.071 157.663 206.662 160.807C208.291 163.951 210.582 166.375 213.537 168.08C216.491 169.784 219.995 170.636 224.048 170.636C226.738 170.636 229.2 170.258 231.435 169.5C233.67 168.742 235.582 167.606 237.173 166.091C238.764 164.576 239.976 162.72 240.81 160.523L263.196 162C262.06 167.379 259.73 172.076 256.207 176.091C252.723 180.068 248.215 183.174 242.685 185.409C237.192 187.606 230.848 188.705 223.651 188.705ZM325.923 99.7273V117.909H273.366V99.7273H325.923ZM285.298 78.8182H309.503V160.182C309.503 162.417 309.844 164.159 310.526 165.409C311.207 166.621 312.154 167.473 313.366 167.966C314.616 168.458 316.056 168.705 317.685 168.705C318.821 168.705 319.957 168.61 321.094 168.42C322.23 168.193 323.101 168.023 323.707 167.909L327.514 185.92C326.302 186.299 324.598 186.735 322.401 187.227C320.204 187.758 317.533 188.08 314.389 188.193C308.556 188.42 303.442 187.644 299.048 185.864C294.692 184.083 291.302 181.318 288.878 177.568C286.454 173.818 285.26 169.083 285.298 163.364V78.8182ZM367.713 187L334.418 70.6364H361.293L380.554 151.489H381.52L402.77 70.6364H425.781L446.974 151.659H447.997L467.259 70.6364H494.134L460.838 187H436.861L414.702 110.92H413.793L391.69 187H367.713Z" fill="#006498"/>
</svg>
